<mxfile host="app.diagrams.net" modified="2021-03-10T12:27:03.152Z" agent="5.0 (X11)" etag="shJkblYtsrBrgAdZjBj8" version="14.4.4" type="github" pages="4">
  <diagram name=" SeqDiagram-CX-VOO-CDC" id="13e1069c-82ec-6db2-03f1-153e76fe0fe0">
    <mxGraphModel dx="1590" dy="804" grid="1" gridSize="10" guides="1" tooltips="1" connect="1" arrows="1" fold="1" page="1" pageScale="1" pageWidth="1100" pageHeight="850" background="#ffffff" math="0" shadow="0">
      <root>
        <mxCell id="0" />
        <mxCell id="1" parent="0" />
        <mxCell id="7baba1c4bc27f4b0-3" value=":SAP CX" style="shape=umlLifeline;perimeter=lifelinePerimeter;whiteSpace=wrap;html=1;container=1;collapsible=0;recursiveResize=0;outlineConnect=0;rounded=1;shadow=0;comic=0;labelBackgroundColor=none;strokeWidth=1;fontFamily=Verdana;fontSize=12;align=center;" parent="1" vertex="1">
          <mxGeometry x="400" y="80" width="100" height="760" as="geometry" />
        </mxCell>
        <mxCell id="7baba1c4bc27f4b0-13" value="" style="html=1;points=[];perimeter=orthogonalPerimeter;rounded=0;shadow=0;comic=0;labelBackgroundColor=none;strokeWidth=1;fontFamily=Verdana;fontSize=12;align=center;" parent="7baba1c4bc27f4b0-3" vertex="1">
          <mxGeometry x="45" y="400" width="10" height="40" as="geometry" />
        </mxCell>
        <mxCell id="yacgWs6S20IWa_EJ3ZdP-11" value="" style="html=1;points=[];perimeter=orthogonalPerimeter;" parent="7baba1c4bc27f4b0-3" vertex="1">
          <mxGeometry x="45" y="640" width="10" height="40" as="geometry" />
        </mxCell>
        <mxCell id="CtpcudGJO6RHwoeuUBKw-8" value="" style="html=1;points=[];perimeter=orthogonalPerimeter;" parent="7baba1c4bc27f4b0-3" vertex="1">
          <mxGeometry x="45" y="720" width="10" height="40" as="geometry" />
        </mxCell>
        <mxCell id="7baba1c4bc27f4b0-4" value=":BO VOO" style="shape=umlLifeline;perimeter=lifelinePerimeter;whiteSpace=wrap;html=1;container=1;collapsible=0;recursiveResize=0;outlineConnect=0;rounded=1;shadow=0;comic=0;labelBackgroundColor=none;strokeWidth=1;fontFamily=Verdana;fontSize=12;align=center;" parent="1" vertex="1">
          <mxGeometry x="540" y="80" width="100" height="570" as="geometry" />
        </mxCell>
        <mxCell id="yacgWs6S20IWa_EJ3ZdP-4" value="" style="html=1;points=[];perimeter=orthogonalPerimeter;" parent="7baba1c4bc27f4b0-4" vertex="1">
          <mxGeometry x="45" y="401" width="10" height="39" as="geometry" />
        </mxCell>
        <mxCell id="yacgWs6S20IWa_EJ3ZdP-7" value="" style="html=1;points=[];perimeter=orthogonalPerimeter;" parent="7baba1c4bc27f4b0-4" vertex="1">
          <mxGeometry x="45" y="460" width="10" height="110" as="geometry" />
        </mxCell>
        <mxCell id="yacgWs6S20IWa_EJ3ZdP-8" value="" style="html=1;points=[];perimeter=orthogonalPerimeter;" parent="7baba1c4bc27f4b0-4" vertex="1">
          <mxGeometry x="50" y="480" width="10" height="40" as="geometry" />
        </mxCell>
        <mxCell id="yacgWs6S20IWa_EJ3ZdP-9" value="Create SAP10" style="edgeStyle=orthogonalEdgeStyle;html=1;align=left;spacingLeft=2;endArrow=block;rounded=0;entryX=1;entryY=0;" parent="7baba1c4bc27f4b0-4" target="yacgWs6S20IWa_EJ3ZdP-8" edge="1">
          <mxGeometry relative="1" as="geometry">
            <mxPoint x="55" y="460" as="sourcePoint" />
            <Array as="points">
              <mxPoint x="80" y="460" />
            </Array>
          </mxGeometry>
        </mxCell>
        <mxCell id="7baba1c4bc27f4b0-5" value=":SAP CDC" style="shape=umlLifeline;perimeter=lifelinePerimeter;whiteSpace=wrap;html=1;container=1;collapsible=0;recursiveResize=0;outlineConnect=0;rounded=1;shadow=0;comic=0;labelBackgroundColor=none;strokeWidth=1;fontFamily=Verdana;fontSize=12;align=center;" parent="1" vertex="1">
          <mxGeometry x="680" y="80" width="100" height="760" as="geometry" />
        </mxCell>
        <mxCell id="yacgWs6S20IWa_EJ3ZdP-10" value="" style="html=1;points=[];perimeter=orthogonalPerimeter;" parent="7baba1c4bc27f4b0-5" vertex="1">
          <mxGeometry x="45" y="540" width="10" height="30" as="geometry" />
        </mxCell>
        <mxCell id="yacgWs6S20IWa_EJ3ZdP-12" value="" style="html=1;points=[];perimeter=orthogonalPerimeter;" parent="7baba1c4bc27f4b0-5" vertex="1">
          <mxGeometry x="45" y="640" width="10" height="40" as="geometry" />
        </mxCell>
        <mxCell id="yacgWs6S20IWa_EJ3ZdP-1" value="" style="shape=umlLifeline;participant=umlActor;perimeter=lifelinePerimeter;whiteSpace=wrap;html=1;container=1;collapsible=0;recursiveResize=0;verticalAlign=top;spacingTop=36;outlineConnect=0;" parent="1" vertex="1">
          <mxGeometry x="279" y="80" width="20" height="760" as="geometry" />
        </mxCell>
        <mxCell id="yacgWs6S20IWa_EJ3ZdP-2" value="" style="html=1;points=[];perimeter=orthogonalPerimeter;" parent="yacgWs6S20IWa_EJ3ZdP-1" vertex="1">
          <mxGeometry x="5" y="400" width="10" height="40" as="geometry" />
        </mxCell>
        <mxCell id="yacgWs6S20IWa_EJ3ZdP-3" value="" style="html=1;points=[];perimeter=orthogonalPerimeter;" parent="yacgWs6S20IWa_EJ3ZdP-1" vertex="1">
          <mxGeometry x="5" y="640" width="10" height="40" as="geometry" />
        </mxCell>
        <mxCell id="yacgWs6S20IWa_EJ3ZdP-13" value="Place Order" style="html=1;verticalAlign=bottom;endArrow=block;entryX=0;entryY=0.025;entryDx=0;entryDy=0;entryPerimeter=0;" parent="1" source="yacgWs6S20IWa_EJ3ZdP-2" target="7baba1c4bc27f4b0-13" edge="1">
          <mxGeometry width="80" relative="1" as="geometry">
            <mxPoint x="290" y="481" as="sourcePoint" />
            <mxPoint x="449.5" y="481" as="targetPoint" />
          </mxGeometry>
        </mxCell>
        <mxCell id="yacgWs6S20IWa_EJ3ZdP-14" value="Replicate Order" style="html=1;verticalAlign=bottom;endArrow=block;exitX=0.9;exitY=0.175;exitDx=0;exitDy=0;exitPerimeter=0;" parent="1" edge="1">
          <mxGeometry width="80" relative="1" as="geometry">
            <mxPoint x="454" y="481" as="sourcePoint" />
            <mxPoint x="589.5" y="481" as="targetPoint" />
          </mxGeometry>
        </mxCell>
        <mxCell id="yacgWs6S20IWa_EJ3ZdP-15" value="accounts.setAccountInfo" style="html=1;verticalAlign=bottom;endArrow=block;entryX=0.09;entryY=0.01;entryDx=0;entryDy=0;entryPerimeter=0;" parent="1" target="yacgWs6S20IWa_EJ3ZdP-10" edge="1">
          <mxGeometry width="80" relative="1" as="geometry">
            <mxPoint x="595" y="620.04" as="sourcePoint" />
            <mxPoint x="720" y="620" as="targetPoint" />
          </mxGeometry>
        </mxCell>
        <mxCell id="40GGkk0t6mN_fzsmlvxg-1" value="login" style="html=1;verticalAlign=bottom;endArrow=block;exitX=0.943;exitY=0.082;exitDx=0;exitDy=0;exitPerimeter=0;entryX=0.1;entryY=0.075;entryDx=0;entryDy=0;entryPerimeter=0;" parent="1" edge="1">
          <mxGeometry width="80" relative="1" as="geometry">
            <mxPoint x="293.43000000000006" y="720.56" as="sourcePoint" />
            <mxPoint x="446" y="720" as="targetPoint" />
          </mxGeometry>
        </mxCell>
        <mxCell id="40GGkk0t6mN_fzsmlvxg-2" value="accounts.login" style="html=1;verticalAlign=bottom;endArrow=block;exitX=1.014;exitY=0.504;exitDx=0;exitDy=0;exitPerimeter=0;entryX=-0.129;entryY=0.504;entryDx=0;entryDy=0;entryPerimeter=0;" parent="1" edge="1">
          <mxGeometry width="80" relative="1" as="geometry">
            <mxPoint x="455.1399999999999" y="721.3199999999999" as="sourcePoint" />
            <mxPoint x="723.7099999999998" y="721.3199999999999" as="targetPoint" />
          </mxGeometry>
        </mxCell>
        <mxCell id="40GGkk0t6mN_fzsmlvxg-4" value="User Info synced " style="html=1;verticalAlign=bottom;endArrow=open;dashed=1;endSize=8;entryX=0.917;entryY=0.605;entryDx=0;entryDy=0;entryPerimeter=0;exitX=0.021;exitY=0.967;exitDx=0;exitDy=0;exitPerimeter=0;" parent="1" edge="1">
          <mxGeometry relative="1" as="geometry">
            <mxPoint x="725.2099999999998" y="837.3600000000001" as="sourcePoint" />
            <mxPoint x="454.16999999999985" y="838.4000000000001" as="targetPoint" />
          </mxGeometry>
        </mxCell>
        <mxCell id="40GGkk0t6mN_fzsmlvxg-5" value="authenticated" style="html=1;verticalAlign=bottom;endArrow=open;dashed=1;endSize=8;entryX=0.948;entryY=0.674;entryDx=0;entryDy=0;entryPerimeter=0;exitX=0.09;exitY=0.665;exitDx=0;exitDy=0;exitPerimeter=0;" parent="1" edge="1">
          <mxGeometry relative="1" as="geometry">
            <mxPoint x="445.89999999999986" y="759.2" as="sourcePoint" />
            <mxPoint x="293.48" y="759.9199999999998" as="targetPoint" />
          </mxGeometry>
        </mxCell>
        <mxCell id="40GGkk0t6mN_fzsmlvxg-6" value="order confirmation" style="html=1;verticalAlign=bottom;endArrow=open;dashed=1;endSize=8;" parent="1" edge="1">
          <mxGeometry relative="1" as="geometry">
            <mxPoint x="445" y="518" as="sourcePoint" />
            <mxPoint x="293" y="518" as="targetPoint" />
          </mxGeometry>
        </mxCell>
        <mxCell id="40GGkk0t6mN_fzsmlvxg-7" value="OK" style="html=1;verticalAlign=bottom;endArrow=open;dashed=1;endSize=8;exitX=0.021;exitY=0.989;exitDx=0;exitDy=0;exitPerimeter=0;" parent="1" edge="1">
          <mxGeometry relative="1" as="geometry">
            <mxPoint x="585.21" y="521.1199999999999" as="sourcePoint" />
            <mxPoint x="455" y="521.1199999999999" as="targetPoint" />
          </mxGeometry>
        </mxCell>
        <mxCell id="40GGkk0t6mN_fzsmlvxg-8" value="User Info Updated" style="html=1;verticalAlign=bottom;endArrow=open;dashed=1;endSize=8;exitX=0.021;exitY=0.76;exitDx=0;exitDy=0;exitPerimeter=0;entryX=0.917;entryY=0.88;entryDx=0;entryDy=0;entryPerimeter=0;" parent="1" edge="1">
          <mxGeometry relative="1" as="geometry">
            <mxPoint x="725.21" y="648.8000000000001" as="sourcePoint" />
            <mxPoint x="594.1699999999998" y="648.8000000000001" as="targetPoint" />
          </mxGeometry>
        </mxCell>
        <mxCell id="40GGkk0t6mN_fzsmlvxg-9" value="Login Case" style="shape=umlFrame;whiteSpace=wrap;html=1;width=70;height=30;" parent="1" vertex="1">
          <mxGeometry x="160" y="680" width="680" height="170" as="geometry" />
        </mxCell>
        <mxCell id="Qrh7UDhce4LaqNej2hnX-1" value="" style="html=1;points=[];perimeter=orthogonalPerimeter;" parent="1" vertex="1">
          <mxGeometry x="445" y="160" width="10" height="240" as="geometry" />
        </mxCell>
        <mxCell id="Qrh7UDhce4LaqNej2hnX-2" value="" style="html=1;points=[];perimeter=orthogonalPerimeter;" parent="1" vertex="1">
          <mxGeometry x="725" y="160" width="10" height="90" as="geometry" />
        </mxCell>
        <mxCell id="Qrh7UDhce4LaqNej2hnX-3" value="" style="html=1;points=[];perimeter=orthogonalPerimeter;" parent="1" vertex="1">
          <mxGeometry x="284" y="160" width="10" height="240" as="geometry" />
        </mxCell>
        <mxCell id="Qrh7UDhce4LaqNej2hnX-4" value="Lite Register" style="html=1;verticalAlign=bottom;endArrow=block;exitX=0.6;exitY=0.083;exitDx=0;exitDy=0;exitPerimeter=0;entryX=-0.014;entryY=0.082;entryDx=0;entryDy=0;entryPerimeter=0;" parent="1" edge="1">
          <mxGeometry width="80" relative="1" as="geometry">
            <mxPoint x="290" y="159.91999999999996" as="sourcePoint" />
            <mxPoint x="444.8600000000001" y="159.68000000000006" as="targetPoint" />
          </mxGeometry>
        </mxCell>
        <mxCell id="Qrh7UDhce4LaqNej2hnX-5" value="&lt;span&gt;GET: accounts.initRegistration&lt;/span&gt;" style="html=1;verticalAlign=bottom;endArrow=block;exitX=1.129;exitY=0.046;exitDx=0;exitDy=0;exitPerimeter=0;entryX=-0.186;entryY=0.111;entryDx=0;entryDy=0;entryPerimeter=0;" parent="1" edge="1">
          <mxGeometry width="80" relative="1" as="geometry">
            <mxPoint x="456.2900000000002" y="161.03999999999996" as="sourcePoint" />
            <mxPoint x="723.1399999999999" y="159.99" as="targetPoint" />
          </mxGeometry>
        </mxCell>
        <mxCell id="Qrh7UDhce4LaqNej2hnX-6" value="OK" style="html=1;verticalAlign=bottom;endArrow=open;dashed=1;endSize=8;entryX=0.917;entryY=0.605;entryDx=0;entryDy=0;entryPerimeter=0;exitX=0.021;exitY=0.967;exitDx=0;exitDy=0;exitPerimeter=0;" parent="1" edge="1">
          <mxGeometry x="-0.2236" y="1" relative="1" as="geometry">
            <mxPoint x="725.21" y="187.36" as="sourcePoint" />
            <mxPoint x="454.16999999999985" y="188.4000000000001" as="targetPoint" />
            <mxPoint as="offset" />
          </mxGeometry>
        </mxCell>
        <mxCell id="Qrh7UDhce4LaqNej2hnX-8" value="Lite Registration Case" style="shape=umlFrame;whiteSpace=wrap;html=1;width=100;height=30;" parent="1" vertex="1">
          <mxGeometry x="160" y="135" width="680" height="285" as="geometry" />
        </mxCell>
        <mxCell id="Qrh7UDhce4LaqNej2hnX-9" value="&lt;span&gt;POST: accounts.setAccountInfo&lt;/span&gt;" style="html=1;verticalAlign=bottom;endArrow=block;exitX=0.366;exitY=-0.007;exitDx=0;exitDy=0;exitPerimeter=0;entryX=-0.071;entryY=0.676;entryDx=0;entryDy=0;entryPerimeter=0;" parent="1" target="Qrh7UDhce4LaqNej2hnX-2" edge="1">
          <mxGeometry width="80" relative="1" as="geometry">
            <mxPoint x="455.00000000000006" y="219.99999999999994" as="sourcePoint" />
            <mxPoint x="726" y="218" as="targetPoint" />
          </mxGeometry>
        </mxCell>
        <mxCell id="Qrh7UDhce4LaqNej2hnX-10" value="replicate info:Json {...UID} " style="html=1;verticalAlign=bottom;endArrow=open;dashed=1;endSize=8;entryX=0.917;entryY=0.605;entryDx=0;entryDy=0;entryPerimeter=0;exitX=0.021;exitY=0.967;exitDx=0;exitDy=0;exitPerimeter=0;" parent="1" edge="1">
          <mxGeometry x="-0.0023" relative="1" as="geometry">
            <mxPoint x="725.2100000000003" y="249.36" as="sourcePoint" />
            <mxPoint x="454.16999999999985" y="250.4000000000002" as="targetPoint" />
            <mxPoint as="offset" />
            <Array as="points">
              <mxPoint x="600" y="250" />
            </Array>
          </mxGeometry>
        </mxCell>
        <mxCell id="Qrh7UDhce4LaqNej2hnX-13" value="" style="html=1;points=[];perimeter=orthogonalPerimeter;" parent="1" vertex="1">
          <mxGeometry x="451" y="345" width="10" height="40" as="geometry" />
        </mxCell>
        <mxCell id="Qrh7UDhce4LaqNej2hnX-14" value="Authenticate Customer &amp;amp; restore cart (from current user :anonymous)" style="edgeStyle=orthogonalEdgeStyle;html=1;align=left;spacingLeft=2;endArrow=block;rounded=0;entryX=1;entryY=0;" parent="1" target="Qrh7UDhce4LaqNej2hnX-13" edge="1">
          <mxGeometry x="0.1682" relative="1" as="geometry">
            <mxPoint x="456" y="325" as="sourcePoint" />
            <Array as="points">
              <mxPoint x="481" y="325" />
            </Array>
            <mxPoint as="offset" />
          </mxGeometry>
        </mxCell>
        <mxCell id="Qrh7UDhce4LaqNej2hnX-15" value="" style="html=1;points=[];perimeter=orthogonalPerimeter;" parent="1" vertex="1">
          <mxGeometry x="451" y="284" width="10" height="40" as="geometry" />
        </mxCell>
        <mxCell id="Qrh7UDhce4LaqNej2hnX-16" value="create a customer based on profile info" style="edgeStyle=orthogonalEdgeStyle;html=1;align=left;spacingLeft=2;endArrow=block;rounded=0;entryX=1;entryY=0;" parent="1" target="Qrh7UDhce4LaqNej2hnX-15" edge="1">
          <mxGeometry x="0.1682" relative="1" as="geometry">
            <mxPoint x="456" y="264" as="sourcePoint" />
            <Array as="points">
              <mxPoint x="481" y="264" />
              <mxPoint x="481" y="284" />
            </Array>
            <mxPoint as="offset" />
          </mxGeometry>
        </mxCell>
        <mxCell id="Qrh7UDhce4LaqNej2hnX-17" value="OK: registred" style="html=1;verticalAlign=bottom;endArrow=open;dashed=1;endSize=8;" parent="1" edge="1">
          <mxGeometry relative="1" as="geometry">
            <mxPoint x="445" y="399.43" as="sourcePoint" />
            <mxPoint x="293" y="399.43" as="targetPoint" />
          </mxGeometry>
        </mxCell>
        <mxCell id="Qrh7UDhce4LaqNej2hnX-19" value="order process" style="shape=umlFrame;whiteSpace=wrap;html=1;width=70;height=30;" parent="1" vertex="1">
          <mxGeometry x="160" y="443" width="680" height="220" as="geometry" />
        </mxCell>
        <mxCell id="CtpcudGJO6RHwoeuUBKw-6" value="User is logged In!" style="html=1;verticalAlign=bottom;endArrow=open;dashed=1;endSize=8;entryX=0.917;entryY=0.605;entryDx=0;entryDy=0;entryPerimeter=0;exitX=0.021;exitY=0.967;exitDx=0;exitDy=0;exitPerimeter=0;" parent="1" edge="1">
          <mxGeometry relative="1" as="geometry">
            <mxPoint x="725.2099999999998" y="760.3600000000001" as="sourcePoint" />
            <mxPoint x="454.16999999999985" y="761.4000000000001" as="targetPoint" />
          </mxGeometry>
        </mxCell>
        <mxCell id="CtpcudGJO6RHwoeuUBKw-7" value="" style="html=1;points=[];perimeter=orthogonalPerimeter;" parent="1" vertex="1">
          <mxGeometry x="725" y="800" width="10" height="40" as="geometry" />
        </mxCell>
        <mxCell id="CtpcudGJO6RHwoeuUBKw-9" value="accounts.getAccountInfo" style="html=1;verticalAlign=bottom;endArrow=block;exitX=1.071;exitY=0.013;exitDx=0;exitDy=0;exitPerimeter=0;entryX=-0.129;entryY=0.504;entryDx=0;entryDy=0;entryPerimeter=0;" parent="1" source="CtpcudGJO6RHwoeuUBKw-8" edge="1">
          <mxGeometry width="80" relative="1" as="geometry">
            <mxPoint x="457.1399999999999" y="801.3199999999999" as="sourcePoint" />
            <mxPoint x="725.7099999999998" y="801.3199999999999" as="targetPoint" />
          </mxGeometry>
        </mxCell>
      </root>
    </mxGraphModel>
  </diagram>
  <diagram id="rj5MmifftTu9GuvsDzbs" name="OPIDC-GetIndivInfo">
    <mxGraphModel dx="1590" dy="804" grid="1" gridSize="10" guides="1" tooltips="1" connect="1" arrows="1" fold="1" page="1" pageScale="1" pageWidth="850" pageHeight="1100" math="0" shadow="0">
      <root>
        <mxCell id="GJqlhvrMdwDHVoViguF4-0" />
        <mxCell id="GJqlhvrMdwDHVoViguF4-1" parent="GJqlhvrMdwDHVoViguF4-0" />
        <mxCell id="HqLP_BtpdHTX5Zx0e452-0" value=":SAP CX" style="shape=umlLifeline;perimeter=lifelinePerimeter;whiteSpace=wrap;html=1;container=1;collapsible=0;recursiveResize=0;outlineConnect=0;rounded=1;shadow=0;comic=0;labelBackgroundColor=none;strokeWidth=1;fontFamily=Verdana;fontSize=12;align=center;" parent="GJqlhvrMdwDHVoViguF4-1" vertex="1">
          <mxGeometry x="160" y="80" width="100" height="600" as="geometry" />
        </mxCell>
        <mxCell id="HqLP_BtpdHTX5Zx0e452-2" value="" style="html=1;points=[];perimeter=orthogonalPerimeter;" parent="HqLP_BtpdHTX5Zx0e452-0" vertex="1">
          <mxGeometry x="45" y="100" width="10" height="250" as="geometry" />
        </mxCell>
        <mxCell id="QxJ3SDp2spaRBhxeKY4I-17" value="" style="html=1;points=[];perimeter=orthogonalPerimeter;" parent="HqLP_BtpdHTX5Zx0e452-0" vertex="1">
          <mxGeometry x="45" y="480" width="10" height="80" as="geometry" />
        </mxCell>
        <mxCell id="HqLP_BtpdHTX5Zx0e452-9" value=":SAP CDC" style="shape=umlLifeline;perimeter=lifelinePerimeter;whiteSpace=wrap;html=1;container=1;collapsible=0;recursiveResize=0;outlineConnect=0;rounded=1;shadow=0;comic=0;labelBackgroundColor=none;strokeWidth=1;fontFamily=Verdana;fontSize=12;align=center;" parent="GJqlhvrMdwDHVoViguF4-1" vertex="1">
          <mxGeometry x="363" y="80" width="100" height="600" as="geometry" />
        </mxCell>
        <mxCell id="HqLP_BtpdHTX5Zx0e452-11" value="" style="html=1;points=[];perimeter=orthogonalPerimeter;" parent="HqLP_BtpdHTX5Zx0e452-9" vertex="1">
          <mxGeometry x="45" y="110" width="10" height="240" as="geometry" />
        </mxCell>
        <mxCell id="QxJ3SDp2spaRBhxeKY4I-16" value="" style="html=1;points=[];perimeter=orthogonalPerimeter;" parent="HqLP_BtpdHTX5Zx0e452-9" vertex="1">
          <mxGeometry x="44" y="480" width="10" height="80" as="geometry" />
        </mxCell>
        <mxCell id="HqLP_BtpdHTX5Zx0e452-12" value="" style="shape=umlLifeline;participant=umlActor;perimeter=lifelinePerimeter;whiteSpace=wrap;html=1;container=1;collapsible=0;recursiveResize=0;verticalAlign=top;spacingTop=36;outlineConnect=0;" parent="GJqlhvrMdwDHVoViguF4-1" vertex="1">
          <mxGeometry x="50" y="80" width="20" height="600" as="geometry" />
        </mxCell>
        <mxCell id="HqLP_BtpdHTX5Zx0e452-14" value="" style="html=1;points=[];perimeter=orthogonalPerimeter;" parent="HqLP_BtpdHTX5Zx0e452-12" vertex="1">
          <mxGeometry x="5" y="100" width="10.42" height="250" as="geometry" />
        </mxCell>
        <mxCell id="HqLP_BtpdHTX5Zx0e452-46" value=":ATES" style="shape=umlLifeline;perimeter=lifelinePerimeter;whiteSpace=wrap;html=1;container=1;collapsible=0;recursiveResize=0;outlineConnect=0;rounded=1;shadow=0;comic=0;labelBackgroundColor=none;strokeWidth=1;fontFamily=Verdana;fontSize=12;align=center;" parent="GJqlhvrMdwDHVoViguF4-1" vertex="1">
          <mxGeometry x="560" y="80" width="100" height="240" as="geometry" />
        </mxCell>
        <mxCell id="HqLP_BtpdHTX5Zx0e452-47" value="" style="html=1;points=[];perimeter=orthogonalPerimeter;" parent="HqLP_BtpdHTX5Zx0e452-46" vertex="1">
          <mxGeometry x="45" y="110" width="10" height="130" as="geometry" />
        </mxCell>
        <mxCell id="HqLP_BtpdHTX5Zx0e452-50" value=":VOO BO " style="shape=umlLifeline;perimeter=lifelinePerimeter;whiteSpace=wrap;html=1;container=1;collapsible=0;recursiveResize=0;outlineConnect=0;rounded=1;shadow=0;comic=0;labelBackgroundColor=none;strokeWidth=1;fontFamily=Verdana;fontSize=12;align=center;" parent="GJqlhvrMdwDHVoViguF4-1" vertex="1">
          <mxGeometry x="720" y="80" width="100" height="440" as="geometry" />
        </mxCell>
        <mxCell id="HqLP_BtpdHTX5Zx0e452-51" value="" style="html=1;points=[];perimeter=orthogonalPerimeter;" parent="HqLP_BtpdHTX5Zx0e452-50" vertex="1">
          <mxGeometry x="45" y="314" width="10" height="126" as="geometry" />
        </mxCell>
        <mxCell id="QxJ3SDp2spaRBhxeKY4I-0" value="&lt;blockquote&gt;&lt;b&gt;&lt;font style=&quot;font-size: 11px&quot;&gt;Notify&lt;/font&gt; to setAccount Info&lt;/b&gt;&lt;br&gt;&lt;/blockquote&gt;" style="html=1;verticalAlign=bottom;endArrow=block;" parent="HqLP_BtpdHTX5Zx0e452-50" edge="1">
          <mxGeometry x="0.2754" width="80" relative="1" as="geometry">
            <mxPoint x="-300" y="318" as="sourcePoint" />
            <mxPoint x="45" y="318" as="targetPoint" />
            <mxPoint as="offset" />
          </mxGeometry>
        </mxCell>
        <mxCell id="QxJ3SDp2spaRBhxeKY4I-14" value="" style="html=1;points=[];perimeter=orthogonalPerimeter;" parent="HqLP_BtpdHTX5Zx0e452-50" vertex="1">
          <mxGeometry x="49" y="374" width="10" height="40" as="geometry" />
        </mxCell>
        <mxCell id="oiB6DwO0cfeT0zLqST8t-5" style="edgeStyle=orthogonalEdgeStyle;rounded=0;orthogonalLoop=1;jettySize=auto;html=1;" parent="GJqlhvrMdwDHVoViguF4-1" edge="1">
          <mxGeometry relative="1" as="geometry">
            <mxPoint x="65" y="180" as="sourcePoint" />
            <mxPoint x="205" y="180" as="targetPoint" />
          </mxGeometry>
        </mxCell>
        <mxCell id="oiB6DwO0cfeT0zLqST8t-6" style="edgeStyle=orthogonalEdgeStyle;rounded=0;orthogonalLoop=1;jettySize=auto;html=1;entryX=0;entryY=0.5;entryDx=0;entryDy=0;entryPerimeter=0;" parent="GJqlhvrMdwDHVoViguF4-1" edge="1">
          <mxGeometry relative="1" as="geometry">
            <mxPoint x="215" y="191" as="sourcePoint" />
            <mxPoint x="408" y="191" as="targetPoint" />
          </mxGeometry>
        </mxCell>
        <mxCell id="oiB6DwO0cfeT0zLqST8t-7" value="Login &amp;amp; consent" style="edgeStyle=orthogonalEdgeStyle;rounded=0;orthogonalLoop=1;jettySize=auto;html=1;" parent="GJqlhvrMdwDHVoViguF4-1" edge="1">
          <mxGeometry x="-0.016" y="19" relative="1" as="geometry">
            <mxPoint x="418" y="190" as="sourcePoint" />
            <mxPoint x="605" y="190" as="targetPoint" />
            <Array as="points">
              <mxPoint x="500" y="190" />
              <mxPoint x="500" y="190" />
            </Array>
            <mxPoint as="offset" />
          </mxGeometry>
        </mxCell>
        <mxCell id="oiB6DwO0cfeT0zLqST8t-9" value="Login" style="text;html=1;align=center;verticalAlign=middle;resizable=0;points=[];autosize=1;" parent="GJqlhvrMdwDHVoViguF4-1" vertex="1">
          <mxGeometry x="110" y="161" width="40" height="20" as="geometry" />
        </mxCell>
        <mxCell id="2sLSqvcLjiySkRemYsTM-0" value="account.login" style="text;html=1;align=center;verticalAlign=middle;resizable=0;points=[];autosize=1;" parent="GJqlhvrMdwDHVoViguF4-1" vertex="1">
          <mxGeometry x="255" y="160" width="90" height="20" as="geometry" />
        </mxCell>
        <mxCell id="2sLSqvcLjiySkRemYsTM-1" value="" style="html=1;points=[];perimeter=orthogonalPerimeter;" parent="GJqlhvrMdwDHVoViguF4-1" vertex="1">
          <mxGeometry x="413" y="357" width="10" height="40" as="geometry" />
        </mxCell>
        <mxCell id="QxJ3SDp2spaRBhxeKY4I-1" value="&lt;b&gt;Status:OK&lt;/b&gt;" style="html=1;verticalAlign=bottom;endArrow=open;dashed=1;endSize=8;exitX=-0.1;exitY=0.288;exitDx=0;exitDy=0;exitPerimeter=0;" parent="GJqlhvrMdwDHVoViguF4-1" edge="1">
          <mxGeometry relative="1" as="geometry">
            <mxPoint x="764" y="430.0799999999999" as="sourcePoint" />
            <mxPoint x="420" y="430" as="targetPoint" />
          </mxGeometry>
        </mxCell>
        <mxCell id="QxJ3SDp2spaRBhxeKY4I-3" value="account.setAccountInfo" style="html=1;verticalAlign=bottom;endArrow=block;exitX=0.1;exitY=0.35;exitDx=0;exitDy=0;exitPerimeter=0;" parent="GJqlhvrMdwDHVoViguF4-1" edge="1">
          <mxGeometry x="0.1264" relative="1" as="geometry">
            <mxPoint x="766" y="462" as="sourcePoint" />
            <mxPoint x="418" y="462" as="targetPoint" />
            <mxPoint as="offset" />
          </mxGeometry>
        </mxCell>
        <mxCell id="QxJ3SDp2spaRBhxeKY4I-4" value="OK" style="html=1;verticalAlign=bottom;endArrow=open;dashed=1;endSize=8;exitX=1;exitY=0.95;" parent="GJqlhvrMdwDHVoViguF4-1" edge="1">
          <mxGeometry relative="1" as="geometry">
            <mxPoint x="760" y="519" as="targetPoint" />
            <mxPoint x="423" y="519" as="sourcePoint" />
          </mxGeometry>
        </mxCell>
        <mxCell id="QxJ3SDp2spaRBhxeKY4I-6" value="Extension: BeforeAccountLogin" style="edgeStyle=orthogonalEdgeStyle;rounded=0;orthogonalLoop=1;jettySize=auto;html=1;entryX=0.9;entryY=0.525;entryDx=0;entryDy=0;entryPerimeter=0;fontStyle=1" parent="GJqlhvrMdwDHVoViguF4-1" source="2sLSqvcLjiySkRemYsTM-1" target="2sLSqvcLjiySkRemYsTM-1" edge="1">
          <mxGeometry x="0.0841" y="77" relative="1" as="geometry">
            <mxPoint as="offset" />
          </mxGeometry>
        </mxCell>
        <mxCell id="QxJ3SDp2spaRBhxeKY4I-7" value="" style="html=1;points=[];perimeter=orthogonalPerimeter;" parent="GJqlhvrMdwDHVoViguF4-1" vertex="1">
          <mxGeometry x="407" y="460" width="10" height="60" as="geometry" />
        </mxCell>
        <mxCell id="QxJ3SDp2spaRBhxeKY4I-8" value="&lt;b&gt;Logged In &amp;amp; consent&lt;br&gt;&lt;/b&gt;" style="html=1;verticalAlign=bottom;endArrow=open;dashed=1;endSize=8;" parent="GJqlhvrMdwDHVoViguF4-1" edge="1">
          <mxGeometry relative="1" as="geometry">
            <mxPoint x="610" y="320" as="sourcePoint" />
            <mxPoint x="420" y="320" as="targetPoint" />
          </mxGeometry>
        </mxCell>
        <mxCell id="QxJ3SDp2spaRBhxeKY4I-10" value="&lt;b&gt;User is Logged In&lt;/b&gt;!" style="html=1;verticalAlign=bottom;endArrow=open;dashed=1;endSize=8;" parent="GJqlhvrMdwDHVoViguF4-1" edge="1">
          <mxGeometry relative="1" as="geometry">
            <mxPoint x="413" y="430" as="sourcePoint" />
            <mxPoint x="215.5" y="430" as="targetPoint" />
          </mxGeometry>
        </mxCell>
        <mxCell id="QxJ3SDp2spaRBhxeKY4I-12" value="Next page" style="html=1;verticalAlign=bottom;endArrow=open;dashed=1;endSize=8;exitX=0.1;exitY=0.98;exitDx=0;exitDy=0;exitPerimeter=0;" parent="GJqlhvrMdwDHVoViguF4-1" edge="1">
          <mxGeometry relative="1" as="geometry">
            <mxPoint x="206" y="428" as="sourcePoint" />
            <mxPoint x="65.42000000000007" y="428" as="targetPoint" />
          </mxGeometry>
        </mxCell>
        <mxCell id="QxJ3SDp2spaRBhxeKY4I-15" value="Trigger to call SAP CDC" style="edgeStyle=orthogonalEdgeStyle;html=1;align=left;spacingLeft=2;endArrow=block;rounded=0;entryX=1;entryY=0;" parent="GJqlhvrMdwDHVoViguF4-1" target="QxJ3SDp2spaRBhxeKY4I-14" edge="1">
          <mxGeometry relative="1" as="geometry">
            <mxPoint x="775" y="430" as="sourcePoint" />
            <Array as="points">
              <mxPoint x="800" y="430" />
            </Array>
          </mxGeometry>
        </mxCell>
        <mxCell id="QxJ3SDp2spaRBhxeKY4I-22" style="edgeStyle=orthogonalEdgeStyle;rounded=0;orthogonalLoop=1;jettySize=auto;html=1;entryX=0.3;entryY=0.5;entryDx=0;entryDy=0;entryPerimeter=0;" parent="GJqlhvrMdwDHVoViguF4-1" edge="1">
          <mxGeometry relative="1" as="geometry">
            <mxPoint x="215" y="560" as="sourcePoint" />
            <mxPoint x="410" y="560" as="targetPoint" />
          </mxGeometry>
        </mxCell>
        <mxCell id="QxJ3SDp2spaRBhxeKY4I-23" value="account.getAccountInfo" style="edgeLabel;html=1;align=center;verticalAlign=middle;resizable=0;points=[];" parent="QxJ3SDp2spaRBhxeKY4I-22" vertex="1" connectable="0">
          <mxGeometry x="-0.2615" y="2" relative="1" as="geometry">
            <mxPoint x="11" y="-6" as="offset" />
          </mxGeometry>
        </mxCell>
        <mxCell id="QxJ3SDp2spaRBhxeKY4I-24" value="Account Info" style="html=1;verticalAlign=bottom;endArrow=open;dashed=1;endSize=8;entryX=1.2;entryY=1;entryDx=0;entryDy=0;entryPerimeter=0;" parent="GJqlhvrMdwDHVoViguF4-1" target="QxJ3SDp2spaRBhxeKY4I-17" edge="1">
          <mxGeometry relative="1" as="geometry">
            <mxPoint x="407" y="639" as="sourcePoint" />
            <mxPoint x="220" y="639" as="targetPoint" />
          </mxGeometry>
        </mxCell>
        <mxCell id="QxJ3SDp2spaRBhxeKY4I-27" value="As SAP CX Needs in a certain time during the purchase process THE SAP10 aka RelatedParty for legacy customers&lt;br&gt;we will use the Extension: BeforeAccountLogin&lt;br&gt;To Notify VOO BO in Order to update Customer Account Info via the &lt;b&gt;UID &lt;/b&gt;into SAP CDC" style="shape=note2;boundedLbl=1;whiteSpace=wrap;html=1;size=25;verticalAlign=top;align=center;" parent="GJqlhvrMdwDHVoViguF4-1" vertex="1">
          <mxGeometry x="810" y="160" width="320" height="260" as="geometry" />
        </mxCell>
      </root>
    </mxGraphModel>
  </diagram>
  <diagram id="X4zxqbar2eBSSs0aZAVT" name="order-process">
    <mxGraphModel dx="1590" dy="1904" grid="1" gridSize="10" guides="1" tooltips="1" connect="1" arrows="1" fold="1" page="1" pageScale="1" pageWidth="850" pageHeight="1100" math="0" shadow="0">
      <root>
        <mxCell id="0ydwUsu693ctStghU8HK-0" />
        <mxCell id="0ydwUsu693ctStghU8HK-1" parent="0ydwUsu693ctStghU8HK-0" />
        <mxCell id="0ydwUsu693ctStghU8HK-71" value="" style="ellipse;html=1;shape=startState;fillColor=#000000;strokeColor=#ff0000;rounded=1;shadow=0;comic=0;labelBackgroundColor=none;fontFamily=Verdana;fontSize=12;fontColor=#000000;align=center;direction=south;" parent="0ydwUsu693ctStghU8HK-1" vertex="1">
          <mxGeometry x="285" y="-40" width="30" height="30" as="geometry" />
        </mxCell>
        <mxCell id="0ydwUsu693ctStghU8HK-73" value="check Order" style="rounded=1;whiteSpace=wrap;html=1;arcSize=24;fillColor=#ffffc0;strokeColor=#ff0000;shadow=0;comic=0;labelBackgroundColor=none;fontFamily=Verdana;fontSize=12;fontColor=#000000;align=center;" parent="0ydwUsu693ctStghU8HK-1" vertex="1">
          <mxGeometry x="240" y="70" width="120" height="60" as="geometry" />
        </mxCell>
        <mxCell id="0ydwUsu693ctStghU8HK-75" value="Bring Msisdn" style="rounded=1;whiteSpace=wrap;html=1;arcSize=24;fillColor=#ffffc0;strokeColor=#ff0000;shadow=0;comic=0;labelBackgroundColor=none;fontFamily=Verdana;fontSize=12;fontColor=#000000;align=center;" parent="0ydwUsu693ctStghU8HK-1" vertex="1">
          <mxGeometry x="520" y="180" width="120" height="60" as="geometry" />
        </mxCell>
        <mxCell id="0ydwUsu693ctStghU8HK-78" value="Replicate Order" style="rounded=1;whiteSpace=wrap;html=1;arcSize=24;fillColor=#ffffc0;strokeColor=#ff0000;shadow=0;comic=0;labelBackgroundColor=none;fontFamily=Verdana;fontSize=12;fontColor=#000000;align=center;" parent="0ydwUsu693ctStghU8HK-1" vertex="1">
          <mxGeometry x="210" y="390" width="120" height="60" as="geometry" />
        </mxCell>
        <mxCell id="0ydwUsu693ctStghU8HK-79" value="ERROR" style="rounded=1;whiteSpace=wrap;html=1;arcSize=24;fillColor=#ffffc0;strokeColor=#ff0000;shadow=0;comic=0;labelBackgroundColor=none;fontFamily=Verdana;fontSize=12;fontColor=#000000;align=center;" parent="0ydwUsu693ctStghU8HK-1" vertex="1">
          <mxGeometry x="660" y="390" width="120" height="60" as="geometry" />
        </mxCell>
        <mxCell id="0ydwUsu693ctStghU8HK-92" style="edgeStyle=orthogonalEdgeStyle;html=1;labelBackgroundColor=none;endArrow=open;endSize=8;strokeColor=#ff0000;fontFamily=Verdana;fontSize=12;align=left;" parent="0ydwUsu693ctStghU8HK-1" source="0ydwUsu693ctStghU8HK-71" target="0ydwUsu693ctStghU8HK-73" edge="1">
          <mxGeometry relative="1" as="geometry" />
        </mxCell>
        <mxCell id="0ydwUsu693ctStghU8HK-93" style="edgeStyle=orthogonalEdgeStyle;html=1;labelBackgroundColor=none;endArrow=open;endSize=8;strokeColor=#ff0000;fontFamily=Verdana;fontSize=12;align=left;exitX=0.5;exitY=1;exitDx=0;exitDy=0;entryX=0.5;entryY=0;entryDx=0;entryDy=0;" parent="0ydwUsu693ctStghU8HK-1" source="0ydwUsu693ctStghU8HK-73" target="c8vhBXWLEfz38IBFdJqJ-0" edge="1">
          <mxGeometry relative="1" as="geometry">
            <Array as="points">
              <mxPoint x="300" y="220" />
            </Array>
          </mxGeometry>
        </mxCell>
        <mxCell id="0ydwUsu693ctStghU8HK-84" value="" style="ellipse;html=1;shape=endState;fillColor=#000000;strokeColor=#ff0000;rounded=1;shadow=0;comic=0;labelBackgroundColor=none;fontFamily=Verdana;fontSize=12;fontColor=#000000;align=center;" parent="0ydwUsu693ctStghU8HK-1" vertex="1">
          <mxGeometry x="703" y="580" width="30" height="30" as="geometry" />
        </mxCell>
        <mxCell id="0ydwUsu693ctStghU8HK-104" value="" style="rhombus;whiteSpace=wrap;html=1;fillColor=#ffffc0;strokeColor=#ff0000;" parent="0ydwUsu693ctStghU8HK-1" vertex="1">
          <mxGeometry x="443" y="400" width="80" height="40" as="geometry" />
        </mxCell>
        <mxCell id="0ydwUsu693ctStghU8HK-105" value="NOK" style="edgeStyle=orthogonalEdgeStyle;html=1;align=left;verticalAlign=bottom;endArrow=open;endSize=8;strokeColor=#ff0000;entryX=0;entryY=0.5;entryDx=0;entryDy=0;exitX=1;exitY=0.5;exitDx=0;exitDy=0;" parent="0ydwUsu693ctStghU8HK-1" source="0ydwUsu693ctStghU8HK-104" target="0ydwUsu693ctStghU8HK-79" edge="1">
          <mxGeometry x="-0.4" y="10" relative="1" as="geometry">
            <mxPoint x="640" y="419" as="targetPoint" />
            <mxPoint x="503" y="419" as="sourcePoint" />
            <Array as="points">
              <mxPoint x="523" y="420" />
            </Array>
            <mxPoint as="offset" />
          </mxGeometry>
        </mxCell>
        <mxCell id="0ydwUsu693ctStghU8HK-106" value="OK" style="edgeStyle=orthogonalEdgeStyle;html=1;align=left;verticalAlign=top;endArrow=open;endSize=8;strokeColor=#ff0000;exitX=0;exitY=0.5;exitDx=0;exitDy=0;entryX=1;entryY=0.5;entryDx=0;entryDy=0;" parent="0ydwUsu693ctStghU8HK-1" source="0ydwUsu693ctStghU8HK-104" target="0ydwUsu693ctStghU8HK-78" edge="1">
          <mxGeometry x="-0.0909" y="-30" relative="1" as="geometry">
            <mxPoint x="490" y="490" as="targetPoint" />
            <mxPoint as="offset" />
          </mxGeometry>
        </mxCell>
        <mxCell id="0ydwUsu693ctStghU8HK-108" value="" style="edgeStyle=orthogonalEdgeStyle;html=1;align=left;verticalAlign=bottom;endArrow=open;endSize=8;strokeColor=#ff0000;entryX=0.5;entryY=0;entryDx=0;entryDy=0;" parent="0ydwUsu693ctStghU8HK-1" edge="1">
          <mxGeometry x="-0.5385" y="71" relative="1" as="geometry">
            <mxPoint x="719" y="580" as="targetPoint" />
            <mxPoint x="719" y="450" as="sourcePoint" />
            <mxPoint as="offset" />
            <Array as="points">
              <mxPoint x="719" y="490" />
              <mxPoint x="719" y="490" />
            </Array>
          </mxGeometry>
        </mxCell>
        <mxCell id="0ydwUsu693ctStghU8HK-110" style="edgeStyle=orthogonalEdgeStyle;html=1;labelBackgroundColor=none;endArrow=open;endSize=8;strokeColor=#ff0000;fontFamily=Verdana;fontSize=12;align=left;entryX=0.5;entryY=0;entryDx=0;entryDy=0;exitX=0.25;exitY=1;exitDx=0;exitDy=0;" parent="0ydwUsu693ctStghU8HK-1" target="0ydwUsu693ctStghU8HK-104" edge="1" source="0ydwUsu693ctStghU8HK-75">
          <mxGeometry relative="1" as="geometry">
            <mxPoint x="483" y="270" as="sourcePoint" />
            <mxPoint x="489.5" y="350" as="targetPoint" />
            <Array as="points">
              <mxPoint x="550" y="360" />
              <mxPoint x="483" y="360" />
            </Array>
          </mxGeometry>
        </mxCell>
        <mxCell id="0ydwUsu693ctStghU8HK-111" value="SUCCESS" style="rounded=1;whiteSpace=wrap;html=1;arcSize=24;fillColor=#ffffc0;strokeColor=#ff0000;shadow=0;comic=0;labelBackgroundColor=none;fontFamily=Verdana;fontSize=12;fontColor=#000000;align=center;" parent="0ydwUsu693ctStghU8HK-1" vertex="1">
          <mxGeometry x="40" y="620" width="120" height="60" as="geometry" />
        </mxCell>
        <mxCell id="0ydwUsu693ctStghU8HK-112" value="ERROR" style="rounded=1;whiteSpace=wrap;html=1;arcSize=24;fillColor=#ffffc0;strokeColor=#ff0000;shadow=0;comic=0;labelBackgroundColor=none;fontFamily=Verdana;fontSize=12;fontColor=#000000;align=center;" parent="0ydwUsu693ctStghU8HK-1" vertex="1">
          <mxGeometry x="350" y="620" width="120" height="60" as="geometry" />
        </mxCell>
        <mxCell id="0ydwUsu693ctStghU8HK-116" value="" style="rhombus;whiteSpace=wrap;html=1;fillColor=#ffffc0;strokeColor=#ff0000;" parent="0ydwUsu693ctStghU8HK-1" vertex="1">
          <mxGeometry x="228" y="510" width="80" height="40" as="geometry" />
        </mxCell>
        <mxCell id="0ydwUsu693ctStghU8HK-117" value="no" style="edgeStyle=orthogonalEdgeStyle;html=1;align=left;verticalAlign=bottom;endArrow=open;endSize=8;strokeColor=#ff0000;entryX=0.5;entryY=0;entryDx=0;entryDy=0;" parent="0ydwUsu693ctStghU8HK-1" source="0ydwUsu693ctStghU8HK-116" target="0ydwUsu693ctStghU8HK-112" edge="1">
          <mxGeometry x="-1" relative="1" as="geometry">
            <mxPoint x="370" y="500" as="targetPoint" />
          </mxGeometry>
        </mxCell>
        <mxCell id="0ydwUsu693ctStghU8HK-118" value="yes" style="edgeStyle=orthogonalEdgeStyle;html=1;align=left;verticalAlign=top;endArrow=open;endSize=8;strokeColor=#ff0000;entryX=0.35;entryY=-0.083;entryDx=0;entryDy=0;entryPerimeter=0;" parent="0ydwUsu693ctStghU8HK-1" edge="1">
          <mxGeometry x="-0.5931" y="-20" relative="1" as="geometry">
            <mxPoint x="101" y="615.02" as="targetPoint" />
            <mxPoint x="230" y="530" as="sourcePoint" />
            <Array as="points">
              <mxPoint x="101" y="530" />
            </Array>
            <mxPoint as="offset" />
          </mxGeometry>
        </mxCell>
        <mxCell id="0ydwUsu693ctStghU8HK-119" style="edgeStyle=orthogonalEdgeStyle;html=1;labelBackgroundColor=none;endArrow=open;endSize=8;strokeColor=#ff0000;fontFamily=Verdana;fontSize=12;align=left;exitX=0.5;exitY=1;exitDx=0;exitDy=0;" parent="0ydwUsu693ctStghU8HK-1" source="0ydwUsu693ctStghU8HK-78" edge="1">
          <mxGeometry relative="1" as="geometry">
            <mxPoint x="493" y="280" as="sourcePoint" />
            <mxPoint x="270" y="510" as="targetPoint" />
            <Array as="points">
              <mxPoint x="270" y="480" />
              <mxPoint x="270" y="480" />
            </Array>
          </mxGeometry>
        </mxCell>
        <mxCell id="WqTOLlX7Ar17dfAgS-HS-0" value="" style="ellipse;html=1;shape=endState;fillColor=#000000;strokeColor=#ff0000;rounded=1;shadow=0;comic=0;labelBackgroundColor=none;fontFamily=Verdana;fontSize=12;fontColor=#000000;align=center;" parent="0ydwUsu693ctStghU8HK-1" vertex="1">
          <mxGeometry x="253" y="740" width="30" height="30" as="geometry" />
        </mxCell>
        <mxCell id="WqTOLlX7Ar17dfAgS-HS-1" value="" style="edgeStyle=orthogonalEdgeStyle;html=1;align=left;verticalAlign=top;endArrow=open;endSize=8;strokeColor=#ff0000;entryX=0;entryY=0.5;entryDx=0;entryDy=0;exitX=0.5;exitY=1;exitDx=0;exitDy=0;" parent="0ydwUsu693ctStghU8HK-1" source="0ydwUsu693ctStghU8HK-111" target="WqTOLlX7Ar17dfAgS-HS-0" edge="1">
          <mxGeometry x="-0.3421" y="-20" relative="1" as="geometry">
            <mxPoint x="70" y="815.02" as="targetPoint" />
            <mxPoint x="199" y="730" as="sourcePoint" />
            <Array as="points">
              <mxPoint x="100" y="755" />
            </Array>
            <mxPoint x="-20" y="-20" as="offset" />
          </mxGeometry>
        </mxCell>
        <mxCell id="WqTOLlX7Ar17dfAgS-HS-2" value="" style="edgeStyle=orthogonalEdgeStyle;html=1;align=left;verticalAlign=top;endArrow=open;endSize=8;strokeColor=#ff0000;exitX=0.5;exitY=1;exitDx=0;exitDy=0;entryX=1;entryY=0.5;entryDx=0;entryDy=0;" parent="0ydwUsu693ctStghU8HK-1" source="0ydwUsu693ctStghU8HK-112" target="WqTOLlX7Ar17dfAgS-HS-0" edge="1">
          <mxGeometry x="0.0396" y="-25" relative="1" as="geometry">
            <mxPoint x="330" y="760" as="targetPoint" />
            <mxPoint x="413.5" y="690" as="sourcePoint" />
            <Array as="points">
              <mxPoint x="410" y="755" />
            </Array>
            <mxPoint as="offset" />
          </mxGeometry>
        </mxCell>
        <mxCell id="c8vhBXWLEfz38IBFdJqJ-0" value="" style="rhombus;whiteSpace=wrap;html=1;fillColor=#ffffc0;strokeColor=#ff0000;" vertex="1" parent="0ydwUsu693ctStghU8HK-1">
          <mxGeometry x="260" y="190" width="80" height="40" as="geometry" />
        </mxCell>
        <mxCell id="c8vhBXWLEfz38IBFdJqJ-2" style="edgeStyle=orthogonalEdgeStyle;html=1;labelBackgroundColor=none;endArrow=open;endSize=8;strokeColor=#ff0000;fontFamily=Verdana;fontSize=12;align=left;entryX=0.25;entryY=0;entryDx=0;entryDy=0;exitX=0;exitY=0.5;exitDx=0;exitDy=0;" edge="1" parent="0ydwUsu693ctStghU8HK-1" source="c8vhBXWLEfz38IBFdJqJ-0" target="0ydwUsu693ctStghU8HK-78">
          <mxGeometry relative="1" as="geometry">
            <mxPoint x="493" y="280" as="sourcePoint" />
            <mxPoint x="493" y="410" as="targetPoint" />
            <Array as="points">
              <mxPoint x="240" y="210" />
            </Array>
          </mxGeometry>
        </mxCell>
        <mxCell id="c8vhBXWLEfz38IBFdJqJ-3" style="edgeStyle=orthogonalEdgeStyle;html=1;labelBackgroundColor=none;endArrow=open;endSize=8;strokeColor=#ff0000;fontFamily=Verdana;fontSize=12;align=left;exitX=1;exitY=0.5;exitDx=0;exitDy=0;entryX=0;entryY=0.5;entryDx=0;entryDy=0;" edge="1" parent="0ydwUsu693ctStghU8HK-1" source="c8vhBXWLEfz38IBFdJqJ-0" target="0ydwUsu693ctStghU8HK-75">
          <mxGeometry relative="1" as="geometry">
            <mxPoint x="270" y="220" as="sourcePoint" />
            <mxPoint x="490" y="210" as="targetPoint" />
            <Array as="points" />
          </mxGeometry>
        </mxCell>
        <mxCell id="c8vhBXWLEfz38IBFdJqJ-4" value="Order contains Mobile &amp;amp; new MSISDN requested" style="text;html=1;align=center;verticalAlign=middle;resizable=0;points=[];autosize=1;" vertex="1" parent="0ydwUsu693ctStghU8HK-1">
          <mxGeometry x="308" y="150" width="280" height="20" as="geometry" />
        </mxCell>
        <mxCell id="c8vhBXWLEfz38IBFdJqJ-5" value="ELSE" style="text;html=1;align=center;verticalAlign=middle;resizable=0;points=[];autosize=1;" vertex="1" parent="0ydwUsu693ctStghU8HK-1">
          <mxGeometry x="190" y="260" width="50" height="20" as="geometry" />
        </mxCell>
      </root>
    </mxGraphModel>
  </diagram>
  <diagram id="VhWggBSa0w0BUi2lRx0n" name="subscriptions">
    <mxGraphModel dx="1153" dy="554" grid="1" gridSize="10" guides="1" tooltips="1" connect="1" arrows="1" fold="1" page="1" pageScale="1" pageWidth="850" pageHeight="1100" math="0" shadow="0">
      <root>
        <mxCell id="N79oA5ZzZffghEJr7JX8-0" />
        <mxCell id="N79oA5ZzZffghEJr7JX8-1" parent="N79oA5ZzZffghEJr7JX8-0" />
        <mxCell id="WSzwoScoLJKDT1ZZIOws-0" value=":SAP CX" style="shape=umlLifeline;perimeter=lifelinePerimeter;whiteSpace=wrap;html=1;container=1;collapsible=0;recursiveResize=0;outlineConnect=0;rounded=1;shadow=0;comic=0;labelBackgroundColor=none;strokeWidth=1;fontFamily=Verdana;fontSize=12;align=center;" vertex="1" parent="N79oA5ZzZffghEJr7JX8-1">
          <mxGeometry x="160" y="80" width="100" height="600" as="geometry" />
        </mxCell>
        <mxCell id="WSzwoScoLJKDT1ZZIOws-1" value="" style="html=1;points=[];perimeter=orthogonalPerimeter;" vertex="1" parent="WSzwoScoLJKDT1ZZIOws-0">
          <mxGeometry x="45" y="100" width="10" height="340" as="geometry" />
        </mxCell>
        <mxCell id="WSzwoScoLJKDT1ZZIOws-3" value=":VOO BO" style="shape=umlLifeline;perimeter=lifelinePerimeter;whiteSpace=wrap;html=1;container=1;collapsible=0;recursiveResize=0;outlineConnect=0;rounded=1;shadow=0;comic=0;labelBackgroundColor=none;strokeWidth=1;fontFamily=Verdana;fontSize=12;align=center;" vertex="1" parent="N79oA5ZzZffghEJr7JX8-1">
          <mxGeometry x="363" y="80" width="100" height="600" as="geometry" />
        </mxCell>
        <mxCell id="WSzwoScoLJKDT1ZZIOws-38" value="" style="html=1;points=[];perimeter=orthogonalPerimeter;" vertex="1" parent="WSzwoScoLJKDT1ZZIOws-3">
          <mxGeometry x="45" y="170" width="10" height="50" as="geometry" />
        </mxCell>
        <mxCell id="WSzwoScoLJKDT1ZZIOws-6" value="" style="shape=umlLifeline;participant=umlActor;perimeter=lifelinePerimeter;whiteSpace=wrap;html=1;container=1;collapsible=0;recursiveResize=0;verticalAlign=top;spacingTop=36;outlineConnect=0;" vertex="1" parent="N79oA5ZzZffghEJr7JX8-1">
          <mxGeometry x="50" y="80" width="20" height="600" as="geometry" />
        </mxCell>
        <mxCell id="WSzwoScoLJKDT1ZZIOws-7" value="" style="html=1;points=[];perimeter=orthogonalPerimeter;" vertex="1" parent="WSzwoScoLJKDT1ZZIOws-6">
          <mxGeometry x="5" y="100" width="10.42" height="30" as="geometry" />
        </mxCell>
        <mxCell id="WSzwoScoLJKDT1ZZIOws-14" style="edgeStyle=orthogonalEdgeStyle;rounded=0;orthogonalLoop=1;jettySize=auto;html=1;" edge="1" parent="N79oA5ZzZffghEJr7JX8-1">
          <mxGeometry relative="1" as="geometry">
            <mxPoint x="65" y="180" as="sourcePoint" />
            <mxPoint x="205" y="180" as="targetPoint" />
          </mxGeometry>
        </mxCell>
        <mxCell id="WSzwoScoLJKDT1ZZIOws-15" style="edgeStyle=orthogonalEdgeStyle;rounded=0;orthogonalLoop=1;jettySize=auto;html=1;" edge="1" parent="N79oA5ZzZffghEJr7JX8-1">
          <mxGeometry relative="1" as="geometry">
            <mxPoint x="215" y="250" as="sourcePoint" />
            <mxPoint x="410" y="250" as="targetPoint" />
          </mxGeometry>
        </mxCell>
        <mxCell id="WSzwoScoLJKDT1ZZIOws-17" value="After Login success" style="text;html=1;align=center;verticalAlign=middle;resizable=0;points=[];autosize=1;" vertex="1" parent="N79oA5ZzZffghEJr7JX8-1">
          <mxGeometry x="70" y="161" width="120" height="20" as="geometry" />
        </mxCell>
        <mxCell id="WSzwoScoLJKDT1ZZIOws-18" value="&lt;b&gt;/product&lt;/b&gt;" style="text;html=1;align=center;verticalAlign=middle;resizable=0;points=[];autosize=1;" vertex="1" parent="N79oA5ZzZffghEJr7JX8-1">
          <mxGeometry x="280" y="228" width="60" height="20" as="geometry" />
        </mxCell>
        <mxCell id="WSzwoScoLJKDT1ZZIOws-33" value="&lt;b&gt;return List of subscribed Products&lt;/b&gt;" style="html=1;verticalAlign=bottom;endArrow=open;dashed=1;endSize=8;" edge="1" parent="N79oA5ZzZffghEJr7JX8-1">
          <mxGeometry x="0.0526" y="-9" relative="1" as="geometry">
            <mxPoint x="410" y="299" as="sourcePoint" />
            <mxPoint x="220" y="299" as="targetPoint" />
            <mxPoint as="offset" />
          </mxGeometry>
        </mxCell>
        <mxCell id="WSzwoScoLJKDT1ZZIOws-35" value="" style="html=1;points=[];perimeter=orthogonalPerimeter;" vertex="1" parent="N79oA5ZzZffghEJr7JX8-1">
          <mxGeometry x="210" y="210" width="10" height="40" as="geometry" />
        </mxCell>
        <mxCell id="WSzwoScoLJKDT1ZZIOws-36" value="&lt;b&gt;check if RP NOT NULL&lt;/b&gt;" style="edgeStyle=orthogonalEdgeStyle;html=1;align=left;spacingLeft=2;endArrow=block;rounded=0;entryX=1;entryY=0;" edge="1" target="WSzwoScoLJKDT1ZZIOws-35" parent="N79oA5ZzZffghEJr7JX8-1">
          <mxGeometry relative="1" as="geometry">
            <mxPoint x="215" y="190" as="sourcePoint" />
            <Array as="points">
              <mxPoint x="240" y="190" />
            </Array>
          </mxGeometry>
        </mxCell>
        <mxCell id="WSzwoScoLJKDT1ZZIOws-39" value="" style="html=1;points=[];perimeter=orthogonalPerimeter;" vertex="1" parent="N79oA5ZzZffghEJr7JX8-1">
          <mxGeometry x="210" y="350" width="10" height="40" as="geometry" />
        </mxCell>
        <mxCell id="WSzwoScoLJKDT1ZZIOws-40" value="&lt;strong&gt;Billing Account&lt;/strong&gt;" style="edgeStyle=orthogonalEdgeStyle;html=1;align=left;spacingLeft=2;endArrow=block;rounded=0;entryX=1;entryY=0;" edge="1" target="WSzwoScoLJKDT1ZZIOws-39" parent="N79oA5ZzZffghEJr7JX8-1">
          <mxGeometry relative="1" as="geometry">
            <mxPoint x="215" y="330" as="sourcePoint" />
            <Array as="points">
              <mxPoint x="240" y="330" />
            </Array>
          </mxGeometry>
        </mxCell>
        <mxCell id="WSzwoScoLJKDT1ZZIOws-42" value="" style="html=1;points=[];perimeter=orthogonalPerimeter;" vertex="1" parent="N79oA5ZzZffghEJr7JX8-1">
          <mxGeometry x="210" y="410" width="10" height="40" as="geometry" />
        </mxCell>
        <mxCell id="WSzwoScoLJKDT1ZZIOws-43" value="&lt;b&gt;Subscription Base&lt;/b&gt;" style="edgeStyle=orthogonalEdgeStyle;html=1;align=left;spacingLeft=2;endArrow=block;rounded=0;entryX=1;entryY=0;" edge="1" target="WSzwoScoLJKDT1ZZIOws-42" parent="N79oA5ZzZffghEJr7JX8-1">
          <mxGeometry relative="1" as="geometry">
            <mxPoint x="215" y="390" as="sourcePoint" />
            <Array as="points">
              <mxPoint x="240" y="390" />
            </Array>
          </mxGeometry>
        </mxCell>
        <mxCell id="WSzwoScoLJKDT1ZZIOws-44" value="" style="html=1;points=[];perimeter=orthogonalPerimeter;" vertex="1" parent="N79oA5ZzZffghEJr7JX8-1">
          <mxGeometry x="210" y="470" width="10" height="40" as="geometry" />
        </mxCell>
        <mxCell id="WSzwoScoLJKDT1ZZIOws-45" value="&lt;strong&gt;Subscribed Product&lt;/strong&gt;" style="edgeStyle=orthogonalEdgeStyle;html=1;align=left;spacingLeft=2;endArrow=block;rounded=0;entryX=1;entryY=0;" edge="1" target="WSzwoScoLJKDT1ZZIOws-44" parent="N79oA5ZzZffghEJr7JX8-1">
          <mxGeometry relative="1" as="geometry">
            <mxPoint x="215" y="450" as="sourcePoint" />
            <Array as="points">
              <mxPoint x="240" y="450" />
            </Array>
          </mxGeometry>
        </mxCell>
        <mxCell id="WSzwoScoLJKDT1ZZIOws-47" value="Get &amp;amp; delete the Billing Account if exist  and all linked items;&lt;br&gt;Then Create a Billing Account :&lt;br&gt;&amp;nbsp;&amp;nbsp;&amp;nbsp; Link the Billing Account created to the Related Party" style="shape=note;size=15;align=left;spacingLeft=10;html=1;whiteSpace=wrap;" vertex="1" parent="N79oA5ZzZffghEJr7JX8-1">
          <mxGeometry x="490" y="270" width="360" height="70" as="geometry" />
        </mxCell>
        <mxCell id="WSzwoScoLJKDT1ZZIOws-48" value="" style="edgeStyle=none;endArrow=none;dashed=1;html=1;exitX=0.003;exitY=0.651;exitDx=0;exitDy=0;exitPerimeter=0;" edge="1" source="WSzwoScoLJKDT1ZZIOws-47" parent="N79oA5ZzZffghEJr7JX8-1">
          <mxGeometry x="1" relative="1" as="geometry">
            <mxPoint x="330" y="340" as="targetPoint" />
          </mxGeometry>
        </mxCell>
        <mxCell id="WSzwoScoLJKDT1ZZIOws-50" value="Get if exists &amp;amp; delete Subscription Base and all linked items;&lt;br&gt; -&amp;gt; then Create a Subscription Base :&lt;br&gt;&amp;nbsp;&amp;nbsp;&amp;nbsp; Creation of the Access Subscription and link it to the Billing Account&lt;br&gt;&amp;nbsp;&amp;nbsp;&amp;nbsp; Creation of the Billing Agreement and linking it to the Billing Account" style="shape=note;size=15;align=left;spacingLeft=10;html=1;whiteSpace=wrap;" vertex="1" parent="N79oA5ZzZffghEJr7JX8-1">
          <mxGeometry x="540" y="380" width="410" height="90" as="geometry" />
        </mxCell>
        <mxCell id="WSzwoScoLJKDT1ZZIOws-51" value="&lt;br&gt;&lt;div&gt;- Remove Subscribed Products and all linked items;&lt;/div&gt;&lt;div&gt;&lt;br&gt;&lt;/div&gt;-&amp;gt; Then Create Subscribed Product &amp;amp; Creation of the Billing Agreement Item to the subscribed product and link it to the subscribed Product" style="shape=note;size=15;align=left;spacingLeft=10;html=1;whiteSpace=wrap;" vertex="1" parent="N79oA5ZzZffghEJr7JX8-1">
          <mxGeometry x="540" y="530" width="440" height="90" as="geometry" />
        </mxCell>
        <mxCell id="WSzwoScoLJKDT1ZZIOws-54" value="" style="edgeStyle=none;endArrow=none;dashed=1;html=1;exitX=0;exitY=0.5;exitDx=0;exitDy=0;exitPerimeter=0;" edge="1" parent="N79oA5ZzZffghEJr7JX8-1" source="WSzwoScoLJKDT1ZZIOws-50">
          <mxGeometry x="1" relative="1" as="geometry">
            <mxPoint x="340" y="400" as="targetPoint" />
            <mxPoint x="540.0000000000002" y="440" as="sourcePoint" />
          </mxGeometry>
        </mxCell>
        <mxCell id="WSzwoScoLJKDT1ZZIOws-55" value="" style="edgeStyle=none;endArrow=none;dashed=1;html=1;exitX=0;exitY=0;exitDx=0;exitDy=0;exitPerimeter=0;" edge="1" parent="N79oA5ZzZffghEJr7JX8-1" source="WSzwoScoLJKDT1ZZIOws-51">
          <mxGeometry x="1" relative="1" as="geometry">
            <mxPoint x="350" y="460" as="targetPoint" />
            <mxPoint x="474.8200000000001" y="530.64" as="sourcePoint" />
          </mxGeometry>
        </mxCell>
        <mxCell id="WSzwoScoLJKDT1ZZIOws-56" value="&lt;div&gt;Related Party mandatory for WS request&lt;br&gt;Customer.getRelatedParties(0)&lt;/div&gt;" style="shape=note;size=15;align=left;spacingLeft=10;html=1;whiteSpace=wrap;" vertex="1" parent="N79oA5ZzZffghEJr7JX8-1">
          <mxGeometry x="570" y="120" width="260" height="80" as="geometry" />
        </mxCell>
        <mxCell id="WSzwoScoLJKDT1ZZIOws-57" value="" style="edgeStyle=none;endArrow=none;dashed=1;html=1;exitX=-0.005;exitY=0.45;exitDx=0;exitDy=0;exitPerimeter=0;" edge="1" parent="N79oA5ZzZffghEJr7JX8-1" source="WSzwoScoLJKDT1ZZIOws-56">
          <mxGeometry x="1" relative="1" as="geometry">
            <mxPoint x="220" y="187" as="targetPoint" />
            <mxPoint x="585.6599999999999" y="169.99999999999994" as="sourcePoint" />
          </mxGeometry>
        </mxCell>
      </root>
    </mxGraphModel>
  </diagram>
</mxfile>
